<svg xmlns="http://www.w3.org/2000/svg" aria-hidden="true" style="width:0;height:0;position:absolute;overflow:hidden"><defs><symbol id="close-line" viewBox="0 0 32 32"><path d="m17.253 16 7.369-7.369a.885.885 0 0 0-.047-1.206.893.893 0 0 0-1.207-.047l-7.369 7.369L8.63 7.369a.892.892 0 0 0-1.262 1.262L14.746 16l-7.378 7.369a.891.891 0 0 0-.05 1.304.906.906 0 0 0 .663.26.88.88 0 0 0 .641-.31L16 17.254l7.369 7.369a.886.886 0 0 0 1.207-.047.893.893 0 0 0 .047-1.207L17.254 16z"/></symbol><symbol id="play-solid" viewBox="0 0 36 36"><path d="M32.16 16.08 8.94 4.47A2.07 2.07 0 0 0 6 6.32v23.21a2.06 2.06 0 0 0 3 1.85l23.16-11.61a2.07 2.07 0 0 0 0-3.7v.01Z"/></symbol></defs></svg>