<svg version="1.0" xmlns="http://www.w3.org/2000/svg" width="438.667" height="438.667" viewBox="0 0 329 329"><path d="M195.6 24.3c-2.1 1-4.8 1.9-6 1.9-1.1.1-2.8.8-3.7 1.5-.9.8-2.6 1.5-3.8 1.6-1.1.1-2.1.4-2.1.7 0 1-5.7 4-6.4 3.3-.3-.3-.6-.1-.6.6 0 .8-.6 1.1-1.6.7-.9-.3-1.2-.2-.9.5.4.6-.2 1.3-1.4 1.6-1.2.3-2.1.9-2.1 1.3 0 1.1-4.7 5.9-5.3 5.4-.3-.3-1.5.9-2.7 2.5-1.2 1.7-2.8 3.1-3.6 3.1-.8 0-1.3.4-.9.9.3.5.1 1.2-.5 1.6-.6.4-.8 1-.5 1.5.5.8-2.4 3.6-3.4 3.3-.3-.1-.5.4-.3 1.1.1.7-1.2 1.7-2.9 2.2-2 .6-3.3 1.7-3.5 2.9-.2 1-.6 3-1 4.4-.4 1.4-.8 2.9-.8 3.3-.1.3-.4.9-.8 1.3s-.4 1.4-.1 2.2c.4.9-.2 1.6-1.6 2-1.2.3-2.1 1.3-2.1 2.4 0 1.1-.7 1.9-1.6 1.9-.8 0-1.2-.5-.8-1.1.5-.8.1-.8-1.4 0-1.6.9-2.4.8-3.6-.5-.9-.8-1.6-1.2-1.6-.8 0 .4-1.2-.3-2.7-1.7-1.4-1.3-2.3-1.9-2-1.2.9 1.5-2.2 4.6-4 3.9-.9-.4-1.1-.2-.7.6.5.7-.1.9-1.9.6-1.5-.3-2.8-.1-3 .5-.2.6-2.4 1.1-4.9 1.1-3.8.1-4.5.4-4.4 2.1.1 1.6-.4 1.9-2.4 1.7-1.4-.2-3.1-.9-3.9-1.5-1.1-.9-1.3-.9-.8 0 1.2 2-.4 4.5-2.5 3.9-1.1-.2-1.7-.2-1.4.1.4.5-1.7 3.7-8.5 12.6-1.2 1.5-3.1 3-4.3 3.3-1.1.3-2.8 2-3.7 3.7-.9 1.8-2.2 3.1-2.8 3-.6-.2-1 .3-.8 1 .1.6-.3 1.1-1 1-.6-.2-1 .5-.9 1.5.2.9-.1 2.8-.7 4.2-.5 1.4-1.1 3.2-1.3 4-.2.8-.6 3-.9 4.8-.4 2.2-1 3-1.8 2.5-.7-.4-.5.2.3 1.2 1.4 1.7 1.3 1.8-.2 1.2-1.3-.4-1.5-.2-1.1 1 .3.9 0 2.1-.8 2.7-.8.6-1.5 2.4-1.7 4.1-.1 1.6-.6 3.7-.9 4.5-.3.8-.7 1.9-.8 2.5 0 .5-.7.9-1.5.7-6.3-1.4-7.3-1.5-6.5-.3.4.7.2 2.3-.5 3.6-1.4 2.5-.7 6 1 5 .5-.3 1 0 1 .8s.7 2 1.5 2.7c.8.7 1.3 1.5 1.1 1.9-.5.8 2 3.1 2.7 2.5.3-.3 1.1.9 1.8 2.5.8 1.7 2.8 3.8 4.6 4.6 1.8.9 3.3 2.1 3.3 2.8 0 1.6 5.8 4.2 10.3 4.6.5.1.5.6.1 1.2-.4.7-.9 2.4-1 3.8-.5 3.1-1.2 6.6-1.4 6.6-.1 0-.3 1.3-.6 3-.9 7.1-1.1 8.6-1.2 10.6-.2 1.9-.4 2-1.9.8-1.6-1.3-1.7-1.2-.5.2.7 1 1.1 2.8.8 4-.3 1.3-.7 3.5-1 4.9-.3 1.4-.7 3.7-.8 5.2-.1 1.6-.6 2.8-1.1 2.8-.4 0-.5.4-.2 1 .3.5 0 2.9-.6 5.2-1.7 5.8-1.6 5.5-1.8 7.9 0 1.1-.4 1.8-.8 1.6-.5-.3-.9 1.1-1 3.1-.1 3.3-.9 7.7-1.3 7.7-.1 0-.3 1.7-.6 3.8-.2 2-.8 4.6-1.4 5.7-.8 1.4-.8 2 0 2 .7 0 .8.6.1 1.8-.5.9-1.1 3.5-1.5 5.7-.3 2.2-1 6.7-1.6 10-.6 3.3-1.3 8.2-1.6 11-.3 2.7-1 5.7-1.5 6.6-.4.9-.5 2-.1 2.4.4.5-.1.5-1.1.2-1.3-.5-1.6-.3-1 .6 1 1.6 1.3 3.7.5 3.7-.4 0-.9 2.4-1 5.3-.2 2.8-.5 6.1-.7 7.2-.1 1.1-.3 2.8-.4 3.8 0 1-.4 1.6-.8 1.4-.5-.3-.9.9-.9 2.6-.1 1.8-.5 4.2-.9 5.5l-.7 2.2H152.5l1.9-2.5c1-1.3 2.3-2.2 2.8-1.9.4.3.7.2.6-.3-.4-1.5 2.3-5.4 3.4-4.7.6.4.8.3.5-.2-.3-.5 1-2.7 2.9-4.9s3.4-4.3 3.4-4.7c0-.5.7-.8 1.6-.8.8 0 1.3-.4 1-.9-.8-1.2 2.8-4.2 4.5-3.8.8.2 1.1.2.7 0-1.4-.8-.8-2.6 1.8-4.9 1.4-1.3 2.2-2.4 1.8-2.4-.4 0 .7-1.3 2.4-3 1.8-1.6 3-3 2.7-3-.3 0 .5-1.1 1.7-2.5 1.1-1.3 2.5-2.2 2.9-1.9.4.2 1.1-.1 1.5-.7.4-.8.3-.9-.4-.5-1.6 1-1.5-.2.1-1.8 3.5-3.7 6.7-7.7 6.7-8.5 0-.5 1-1.1 2.2-1.4 1.2-.4 1.9-.9 1.6-1.3-1-.9 4.3-6.4 5.5-5.7.6.3.7.2.4-.4-.9-1.5 4.3-6.5 6-5.8 1.2.4 1.3.2.5-.7-1.3-1.7.6-3.5 3.6-3.3 1.2.1 2.2-.3 2.2-.8s.7-.4 1.5.3 1.5.8 1.5.3 1.6-.8 3.6-.7c2.1.2 5.2-.5 7.5-1.7 2.1-1 3.9-1.6 3.9-1.2 0 .5.4.3.8-.4s2.3-1.5 4.2-1.8c1.9-.3 4-1.2 4.5-1.9.6-.7 2.1-1.9 3.5-2.7 2.6-1.4 3.1-1.6 5.3-1.8.8 0 1.9-1.2 2.5-2.6.6-1.3 2.5-3.1 4.2-4 1.7-.9 2.8-2 2.5-2.5-.3-.5.3-1.3 1.2-1.9 1-.6 1.4-1.1.8-1.1-.6 0-.6-.3.1-.8 1.5-1 8.4-17.9 7.6-18.8-.4-.4.2-.4 1.3 0 1.6.6 1.8.5.8-.5-.7-.7-1.3-2.2-1.3-3.3 0-1.7.2-1.8 1-.6.7 1.1.8.5.3-1.9-.3-2-.2-3.2.3-2.8 1.5.9.6-15.6-1.1-18.2-.3-.5-.1-1.2.4-1.5.5-.4.3-1.9-.5-3.6-.9-1.6-1.2-3.5-.8-4.1.4-.8.3-.9-.4-.5-.8.5-1.2 0-1.2-1.4 0-1.1-.4-2.8-.9-3.8-3.1-6.3-6.2-13.2-6-13.4.2-.2-.9-1.5-2.4-3s-2.7-3.4-2.7-4.3c0-.8-.6-1.5-1.2-1.5-.9 0-.8-.3.2-1 1.2-.7 1-1.1-.9-1.8-2.4-.8-2.4-.9-.4-2.3 1-.8 2.2-2.2 2.6-3.1.3-1 1.7-2 3-2.3 2.5-.7 5.2-4.9 4.1-6.6-.3-.5-1.8-1.6-3.4-2.4-2.6-1.4-2.9-2-2.6-5.3.2-2 1.1-5.1 2-6.7.9-1.7 1.6-3.7 1.6-4.5 0-.9.5-2.1 1.2-2.8.6-.6 1.6-4 2-7.4 1.1-7.7 1.1-7.5.4-11.8-.3-2.1-.1-3.7.7-4.2.9-.6.9-.8-.1-.8-.7 0-1-.5-.7-1 .3-.6.1-1-.4-1-.6 0-1-.3-.9-.8.4-2-1.6-11.2-2.4-11.2-.6 0-.8-.9-.5-2 .3-1.1.1-1.8-.4-1.4-.5.3-.9-.4-.9-1.5 0-1.2.5-2.1 1-2.1.6 0 .1-1-1-2.2-1.1-1.2-1.8-2.8-1.6-3.5.3-.7.1-1.3-.4-1.3-.6 0-1-.9-1-2s-.6-2-1.3-2c-1.5 0-7.3-6.9-6.9-8.2.1-.4-.4-.7-1-.6-.9.2-1.2-.7-1.1-2.7.2-2.2 0-2.6-.7-1.5-.7 1.2-1.3 1.1-3.7-1-4.3-3.9-4.8-4.3-10.9-8-3.1-1.9-7.1-3.6-8.8-3.8-1.7-.2-3.8-.8-4.7-1.2-.9-.5-2.6-.7-3.8-.5-1.3.2-2.4-.2-2.7-.9-.4-1-2.2-1.3-5.7-1.2-2.9.1-6.3-.1-7.7-.4-1.5-.4-4 .1-6.4 1.3z"/><path d="M136.6 69.8c-.3.5.1.9.9.9s1.2-.4.9-.9c-.3-.4-.7-.8-.9-.8-.2 0-.6.4-.9.8zM264.6 126.2c.3.5 1 .6 1.5.3 1.3-.9 1.1-1.2-.6-1.2-.8 0-1.2.4-.9.9zM265.5 140c.3.5.8 1 1.1 1 .2 0 .4-.5.4-1 0-.6-.5-1-1.1-1-.5 0-.7.4-.4 1zM263.6 152.2c.3.5 1 .6 1.5.3 1.3-.9 1.1-1.2-.6-1.2-.8 0-1.2.4-.9.9zM77.5 179.1c-.4.6-.5 1.2-.2 1.5.2.3.7-.2 1-1.1.7-1.7.1-2-.8-.4zM72.6 194.2c.3.5 1 .6 1.5.3 1.3-.9 1.1-1.2-.6-1.2-.8 0-1.2.4-.9.9zM239.6 253.3c.3 1 .9 1.5 1.2 1.2.3-.3 0-1.1-.7-1.8-1-.9-1.1-.8-.5.6zM225.4 257.8c.4.3 1.4.7 2.2.8.9.1 1.3 0 1-.4-.4-.3-1.4-.7-2.2-.8-.9-.1-1.3 0-1 .4zM231.9 257.2c-.5 1.8-.6 3.8-.1 3.4.7-.8 1.2-3.6.6-3.6-.2 0-.4.1-.5.2zM55 265.9c0 .6.4 1.3 1 1.6.6.3.7-.1.4-.9-.7-1.8-1.4-2.1-1.4-.7zM187.5 292c-.3.5-.1 1 .4 1 .6 0 1.1-.5 1.1-1 0-.6-.2-1-.4-1-.3 0-.8.4-1.1 1zM174.7 316.1c.7.7 1.5 1 1.8.7.3-.3-.2-.9-1.2-1.2-1.4-.6-1.5-.5-.6.5z"/></svg>