<svg xmlns="http://www.w3.org/2000/svg" aria-hidden="true" style="width:0;height:0;position:absolute;overflow:hidden"><defs><symbol id="one" viewBox="0 0 32 32"><path fill="#ffe761" d="m29.289 13.289-2.079 2.079L16 4.157 4.789 15.368 2.71 13.289 16 0z" style="fill:var(--color1,#ffe761)"/><path fill="#ffe761" d="m29.289 21.605-2.079 2.079L16 12.473 4.789 23.684 2.71 21.605 16 8.316z" style="fill:var(--color1,#ffe761)"/><path fill="#ffe761" d="M29.289 29.921 27.21 32 16 20.789 4.789 32 2.71 29.921 16 16.631z" style="fill:var(--color1,#ffe761)"/></symbol><symbol id="two" viewBox="0 0 32 32"><path fill="#d5753f" d="M16 30h-.015c-7.732 0-14-6.268-14-14s6.268-14 14-14 14 6.268 14 14c0 4.174-1.827 7.922-4.725 10.487l-.015.013a1 1 0 0 1-1.327-1.499l.001-.001a11.938 11.938 0 0 0 4.055-8.975c0-6.605-5.355-11.96-11.96-11.96S4.054 9.42 4.054 16.025s5.355 11.96 11.96 11.96c1.388 0 2.72-.236 3.959-.671l-.084.026a1.002 1.002 0 0 1 .657 1.893l-.007.002c-1.353.48-2.913.76-4.538.765h-.002z" style="fill:var(--color2,#d5753f)"/><path fill="#f8d24e" d="M16 23.87a1 1 0 0 1-1-1v-9a1 1 0 0 1 2 0v9a1 1 0 0 1-1 1z" style="fill:var(--color3,#f8d24e)"/><path fill="#f8d24e" d="M20.245 14.37h-.006a.996.996 0 0 1-.704-.29L16 10.545l-3.535 3.535a1 1 0 0 1-1.415-1.415l4.245-4.245a.996.996 0 0 1 1.41 0l4.245 4.245a.997.997 0 0 1 0 1.414 1 1 0 0 1-.704.29h-.001z" style="fill:var(--color3,#f8d24e)"/></symbol></defs></svg>