<svg aria-hidden="true" style="position: absolute; width: 0; height: 0; overflow: hidden;" version="1.1" xmlns="http://www.w3.org/2000/svg" xmlns:xlink="http://www.w3.org/1999/xlink">
<defs>
<symbol id="Vector" viewBox="0 0 22 32">
<path d="M3.103 0.726c-0.45 0.45-0.703 1.060-0.703 1.697s0.253 1.247 0.703 1.697l11.88 11.88-11.88 11.88c-0.437 0.453-0.679 1.059-0.674 1.688s0.258 1.231 0.703 1.676c0.445 0.445 1.047 0.697 1.676 0.703s1.236-0.236 1.688-0.674l13.577-13.577c0.45-0.45 0.703-1.060 0.703-1.697s-0.253-1.247-0.703-1.697l-13.577-13.577c-0.45-0.45-1.060-0.703-1.697-0.703s-1.247 0.253-1.697 0.703v0z"></path>
</symbol>
</defs>
</svg>
