<?xml version="1.0" standalone="no"?>
<!DOCTYPE svg PUBLIC "-//W3C//DTD SVG 20010904//EN"
 "http://www.w3.org/TR/2001/REC-SVG-20010904/DTD/svg10.dtd">
<svg version="1.0" xmlns="http://www.w3.org/2000/svg"
 width="329.000000pt" height="329.000000pt" viewBox="0 0 329.000000 329.000000"
 preserveAspectRatio="xMidYMid meet">
<metadata>
Created by potrace 1.14, written by Peter Selinger 2001-2017
</metadata>
<g transform="translate(0.000000,329.000000) scale(0.100000,-0.100000)"
fill="#000000" stroke="none">
<path d="M1956 3047 c-21 -10 -48 -19 -60 -19 -11 -1 -28 -8 -37 -15 -9 -8
-26 -15 -38 -16 -11 -1 -21 -4 -21 -7 0 -10 -57 -40 -64 -33 -3 3 -6 1 -6 -6
0 -8 -6 -11 -16 -7 -9 3 -12 2 -9 -5 4 -6 -2 -13 -14 -16 -12 -3 -21 -9 -21
-13 0 -11 -47 -59 -53 -54 -3 3 -15 -9 -27 -25 -12 -17 -28 -31 -36 -31 -8 0
-13 -4 -9 -9 3 -5 1 -12 -5 -16 -6 -4 -8 -10 -5 -15 5 -8 -24 -36 -34 -33 -3
1 -5 -4 -3 -11 1 -7 -12 -17 -29 -22 -20 -6 -33 -17 -35 -29 -2 -10 -6 -30
-10 -44 -4 -14 -8 -29 -8 -33 -1 -3 -4 -9 -8 -13 -4 -4 -4 -14 -1 -22 4 -9 -2
-16 -16 -20 -12 -3 -21 -13 -21 -24 0 -11 -7 -19 -16 -19 -8 0 -12 5 -8 11 5
8 1 8 -14 0 -16 -9 -24 -8 -36 5 -9 8 -16 12 -16 8 0 -4 -12 3 -27 17 -14 13
-23 19 -20 12 9 -15 -22 -46 -40 -39 -9 4 -11 2 -7 -6 5 -7 -1 -9 -19 -6 -15
3 -28 1 -30 -5 -2 -6 -24 -11 -49 -11 -38 -1 -45 -4 -44 -21 1 -16 -4 -19 -24
-17 -14 2 -31 9 -39 15 -11 9 -13 9 -8 0 12 -20 -4 -45 -25 -39 -11 2 -17 2
-14 -1 4 -5 -17 -37 -85 -126 -12 -15 -31 -30 -43 -33 -11 -3 -28 -20 -37 -37
-9 -18 -22 -31 -28 -30 -6 2 -10 -3 -8 -10 1 -6 -3 -11 -10 -10 -6 2 -10 -5
-9 -15 2 -9 -1 -28 -7 -42 -5 -14 -11 -32 -13 -40 -2 -8 -6 -30 -9 -48 -4 -22
-10 -30 -18 -25 -7 4 -5 -2 3 -12 14 -17 13 -18 -2 -12 -13 4 -15 2 -11 -10 3
-9 0 -21 -8 -27 -8 -6 -15 -24 -17 -41 -1 -16 -6 -37 -9 -45 -3 -8 -7 -19 -8
-25 0 -5 -7 -9 -15 -7 -63 14 -73 15 -65 3 4 -7 2 -23 -5 -36 -14 -25 -7 -60
10 -50 5 3 10 0 10 -8 0 -8 7 -20 15 -27 8 -7 13 -15 11 -19 -5 -8 20 -31 27
-25 3 3 11 -9 18 -25 8 -17 28 -38 46 -46 18 -9 33 -21 33 -28 0 -16 58 -42
103 -46 5 -1 5 -6 1 -12 -4 -7 -9 -24 -10 -38 -5 -31 -12 -66 -14 -66 -1 0 -3
-13 -6 -30 -9 -71 -11 -86 -12 -106 -2 -19 -4 -20 -19 -8 -16 13 -17 12 -5 -2
7 -10 11 -28 8 -40 -3 -13 -7 -35 -10 -49 -3 -14 -7 -37 -8 -52 -1 -16 -6 -28
-11 -28 -4 0 -5 -4 -2 -10 3 -5 0 -29 -6 -52 -17 -58 -16 -55 -18 -79 0 -11
-4 -18 -8 -16 -5 3 -9 -11 -10 -31 -1 -33 -9 -77 -13 -77 -1 0 -3 -17 -6 -38
-2 -20 -8 -46 -14 -57 -8 -14 -8 -20 0 -20 7 0 8 -6 1 -18 -5 -9 -11 -35 -15
-57 -3 -22 -10 -67 -16 -100 -6 -33 -13 -82 -16 -110 -3 -27 -10 -57 -15 -66
-4 -9 -5 -20 -1 -24 4 -5 -1 -5 -11 -2 -13 5 -16 3 -10 -6 10 -16 13 -37 5
-37 -4 0 -9 -24 -10 -53 -2 -28 -5 -61 -7 -72 -1 -11 -3 -28 -4 -38 0 -10 -4
-16 -8 -14 -5 3 -9 -9 -9 -26 -1 -18 -5 -42 -9 -55 l-7 -22 508 0 509 0 19 25
c10 13 23 22 28 19 4 -3 7 -2 6 3 -4 15 23 54 34 47 6 -4 8 -3 5 2 -3 5 10 27
29 49 19 22 34 43 34 47 0 5 7 8 16 8 8 0 13 4 10 9 -8 12 28 42 45 38 8 -2
11 -2 7 0 -14 8 -8 26 18 49 14 13 22 24 18 24 -4 0 7 13 24 30 18 16 30 30
27 30 -3 0 5 11 17 25 11 13 25 22 29 19 4 -2 11 1 15 7 4 8 3 9 -4 5 -16 -10
-15 2 1 18 35 37 67 77 67 85 0 5 10 11 22 14 12 4 19 9 16 13 -10 9 43 64 55
57 6 -3 7 -2 4 4 -9 15 43 65 60 58 12 -4 13 -2 5 7 -13 17 6 35 36 33 12 -1
22 3 22 8 0 5 7 4 15 -3 8 -7 15 -8 15 -3 0 5 16 8 36 7 21 -2 52 5 75 17 21
10 39 16 39 12 0 -5 4 -3 8 4 4 7 23 15 42 18 19 3 40 12 45 19 6 7 21 19 35
27 26 14 31 16 53 18 8 0 19 12 25 26 6 13 25 31 42 40 17 9 28 20 25 25 -3 5
3 13 12 19 10 6 14 11 8 11 -6 0 -6 3 1 8 15 10 84 179 76 188 -4 4 2 4 13 0
16 -6 18 -5 8 5 -7 7 -13 22 -13 33 0 17 2 18 10 6 7 -11 8 -5 3 19 -3 20 -2
32 3 28 15 -9 6 156 -11 182 -3 5 -1 12 4 15 5 4 3 19 -5 36 -9 16 -12 35 -8
41 4 8 3 9 -4 5 -8 -5 -12 0 -12 14 0 11 -4 28 -9 38 -31 63 -62 132 -60 134
2 2 -9 15 -24 30 -15 15 -27 34 -27 43 0 8 -6 15 -12 15 -9 0 -8 3 2 10 12 7
10 11 -9 18 -24 8 -24 9 -4 23 10 8 22 22 26 31 3 10 17 20 30 23 25 7 52 49
41 66 -3 5 -18 16 -34 24 -26 14 -29 20 -26 53 2 20 11 51 20 67 9 17 16 37
16 45 0 9 5 21 12 28 6 6 16 40 20 74 11 77 11 75 4 118 -3 21 -1 37 7 42 9 6
9 8 -1 8 -7 0 -10 5 -7 10 3 6 1 10 -4 10 -6 0 -10 3 -9 8 4 20 -16 112 -24
112 -6 0 -8 9 -5 20 3 11 1 18 -4 14 -5 -3 -9 4 -9 15 0 12 5 21 10 21 6 0 1
10 -10 22 -11 12 -18 28 -16 35 3 7 1 13 -4 13 -6 0 -10 9 -10 20 0 11 -6 20
-13 20 -15 0 -73 69 -69 82 1 4 -4 7 -10 6 -9 -2 -12 7 -11 27 2 22 0 26 -7
15 -7 -12 -13 -11 -37 10 -43 39 -48 43 -109 80 -31 19 -71 36 -88 38 -17 2
-38 8 -47 12 -9 5 -26 7 -38 5 -13 -2 -24 2 -27 9 -4 10 -22 13 -57 12 -29 -1
-63 1 -77 4 -15 4 -40 -1 -64 -13z"/>
<path d="M1366 2592 c-3 -5 1 -9 9 -9 8 0 12 4 9 9 -3 4 -7 8 -9 8 -2 0 -6 -4
-9 -8z"/>
<path d="M2646 2028 c3 -5 10 -6 15 -3 13 9 11 12 -6 12 -8 0 -12 -4 -9 -9z"/>
<path d="M2655 1890 c3 -5 8 -10 11 -10 2 0 4 5 4 10 0 6 -5 10 -11 10 -5 0
-7 -4 -4 -10z"/>
<path d="M2636 1768 c3 -5 10 -6 15 -3 13 9 11 12 -6 12 -8 0 -12 -4 -9 -9z"/>
<path d="M775 1499 c-4 -6 -5 -12 -2 -15 2 -3 7 2 10 11 7 17 1 20 -8 4z"/>
<path d="M726 1348 c3 -5 10 -6 15 -3 13 9 11 12 -6 12 -8 0 -12 -4 -9 -9z"/>
<path d="M2396 757 c3 -10 9 -15 12 -12 3 3 0 11 -7 18 -10 9 -11 8 -5 -6z"/>
<path d="M2254 712 c4 -3 14 -7 22 -8 9 -1 13 0 10 4 -4 3 -14 7 -22 8 -9 1
-13 0 -10 -4z"/>
<path d="M2319 718 c-5 -18 -6 -38 -1 -34 7 8 12 36 6 36 -2 0 -4 -1 -5 -2z"/>
<path d="M550 631 c0 -6 4 -13 10 -16 6 -3 7 1 4 9 -7 18 -14 21 -14 7z"/>
<path d="M1875 370 c-3 -5 -1 -10 4 -10 6 0 11 5 11 10 0 6 -2 10 -4 10 -3 0
-8 -4 -11 -10z"/>
<path d="M1747 129 c7 -7 15 -10 18 -7 3 3 -2 9 -12 12 -14 6 -15 5 -6 -5z"/>
</g>
</svg>
